<?xml version="1.0" encoding="UTF-8" standalone="no"?>
<!DOCTYPE svg PUBLIC "-//W3C//DTD SVG 1.1//EN"
 "http://www.w3.org/Graphics/SVG/1.1/DTD/svg11.dtd">
<!-- Generated by graphviz version 2.50.0 (0)
 -->
<!-- Title: PMM_Updated Pages: 1 -->
<svg width="412pt" height="1294pt"
 viewBox="0.00 0.00 412.00 1294.00" xmlns="http://www.w3.org/2000/svg" xmlns:xlink="http://www.w3.org/1999/xlink">
<g id="graph0" class="graph" transform="scale(1 1) rotate(0) translate(4 1290)">
<title>PMM_Updated</title>
<polygon fill="white" stroke="transparent" points="-4,4 -4,-1290 408,-1290 408,4 -4,4"/>
<text text-anchor="middle" x="202" y="-1270.8" font-family="Helvetica,sans-Serif" font-size="14.00">Updated PMM (Replay Based)</text>
<text text-anchor="middle" x="202" y="-1255.8" font-family="Helvetica,sans-Serif" font-size="14.00">DualStackCubeFixed2/agent/pmm_class.py</text>
<!-- start -->
<g id="node1" class="node">
<title>start</title>
<polygon fill="#e8f5e9" stroke="black" points="308,-1248 234.73,-1230 308,-1212 381.27,-1230 308,-1248"/>
<polyline fill="none" stroke="black" points="246.38,-1232.86 246.38,-1227.14 "/>
<polyline fill="none" stroke="black" points="296.35,-1214.86 319.65,-1214.86 "/>
<polyline fill="none" stroke="black" points="369.62,-1227.14 369.62,-1232.86 "/>
<polyline fill="none" stroke="black" points="319.65,-1245.14 296.35,-1245.14 "/>
<text text-anchor="middle" x="308" y="-1227.2" font-family="Helvetica,sans-Serif" font-size="11.00">learn_pmm()</text>
</g>
<!-- load -->
<g id="node2" class="node">
<title>load</title>
<path fill="#e3f2fd" stroke="black" d="M370,-1175C370,-1175 246,-1175 246,-1175 240,-1175 234,-1169 234,-1163 234,-1163 234,-1151 234,-1151 234,-1145 240,-1139 246,-1139 246,-1139 370,-1139 370,-1139 376,-1139 382,-1145 382,-1151 382,-1151 382,-1163 382,-1163 382,-1169 376,-1175 370,-1175"/>
<text text-anchor="middle" x="308" y="-1160.2" font-family="Helvetica,sans-Serif" font-size="11.00">Load Data</text>
<text text-anchor="middle" x="308" y="-1148.2" font-family="Helvetica,sans-Serif" font-size="11.00">episodes → {S, A, RGB}</text>
</g>
<!-- start&#45;&gt;load -->
<g id="edge1" class="edge">
<title>start&#45;&gt;load</title>
<path fill="none" stroke="black" d="M308,-1211.81C308,-1203.79 308,-1194.05 308,-1185.07"/>
<polygon fill="black" stroke="black" points="311.5,-1185.03 308,-1175.03 304.5,-1185.03 311.5,-1185.03"/>
</g>
<!-- rnn -->
<g id="node3" class="node">
<title>rnn</title>
<path fill="#e3f2fd" stroke="black" d="M374,-1102C374,-1102 242,-1102 242,-1102 236,-1102 230,-1096 230,-1090 230,-1090 230,-1078 230,-1078 230,-1072 236,-1066 242,-1066 242,-1066 374,-1066 374,-1066 380,-1066 386,-1072 386,-1078 386,-1078 386,-1090 386,-1090 386,-1096 380,-1102 374,-1102"/>
<text text-anchor="middle" x="308" y="-1087.2" font-family="Helvetica,sans-Serif" font-size="11.00">Init RNN</text>
<text text-anchor="middle" x="308" y="-1075.2" font-family="Helvetica,sans-Serif" font-size="11.00">(load pretrained weights)</text>
</g>
<!-- load&#45;&gt;rnn -->
<g id="edge2" class="edge">
<title>load&#45;&gt;rnn</title>
<path fill="none" stroke="black" d="M308,-1138.81C308,-1130.79 308,-1121.05 308,-1112.07"/>
<polygon fill="black" stroke="black" points="311.5,-1112.03 308,-1102.03 304.5,-1112.03 311.5,-1112.03"/>
</g>
<!-- sigma -->
<g id="node4" class="node">
<title>sigma</title>
<path fill="#e3f2fd" stroke="black" d="M360,-1029C360,-1029 256,-1029 256,-1029 250,-1029 244,-1023 244,-1017 244,-1017 244,-1005 244,-1005 244,-999 250,-993 256,-993 256,-993 360,-993 360,-993 366,-993 372,-999 372,-1005 372,-1005 372,-1017 372,-1017 372,-1023 366,-1029 360,-1029"/>
<text text-anchor="middle" x="308" y="-1014.2" font-family="Helvetica,sans-Serif" font-size="11.00">Build Σ</text>
<text text-anchor="middle" x="308" y="-1002.2" font-family="Helvetica,sans-Serif" font-size="11.00">(observed alphabet)</text>
</g>
<!-- rnn&#45;&gt;sigma -->
<g id="edge3" class="edge">
<title>rnn&#45;&gt;sigma</title>
<path fill="none" stroke="black" d="M308,-1065.81C308,-1057.79 308,-1048.05 308,-1039.07"/>
<polygon fill="black" stroke="black" points="311.5,-1039.03 308,-1029.03 304.5,-1039.03 311.5,-1039.03"/>
</g>
<!-- precomp -->
<g id="node5" class="node">
<title>precomp</title>
<path fill="#e3f2fd" stroke="black" d="M392,-956C392,-956 224,-956 224,-956 218,-956 212,-950 212,-944 212,-944 212,-924 212,-924 212,-918 218,-912 224,-912 224,-912 392,-912 392,-912 398,-912 404,-918 404,-924 404,-924 404,-944 404,-944 404,-950 398,-956 392,-956"/>
<text text-anchor="middle" x="308" y="-943.2" font-family="Helvetica,sans-Serif" font-size="11.00">Precompute Embeddings</text>
<text text-anchor="middle" x="308" y="-931.2" font-family="Helvetica,sans-Serif" font-size="11.00">RNN forward on all episodes</text>
<text text-anchor="middle" x="308" y="-919.2" font-family="Helvetica,sans-Serif" font-size="11.00">→ db_embeddings (global table)</text>
</g>
<!-- sigma&#45;&gt;precomp -->
<g id="edge4" class="edge">
<title>sigma&#45;&gt;precomp</title>
<path fill="none" stroke="black" d="M308,-992.98C308,-985.15 308,-975.61 308,-966.54"/>
<polygon fill="black" stroke="black" points="311.5,-966.24 308,-956.24 304.5,-966.24 311.5,-966.24"/>
</g>
<!-- lstar -->
<g id="node6" class="node">
<title>lstar</title>
<polygon fill="#fff9c4" stroke="black" points="308,-875 241.83,-857 308,-839 374.17,-857 308,-875"/>
<text text-anchor="middle" x="308" y="-854.2" font-family="Helvetica,sans-Serif" font-size="11.00">L* Iteration</text>
</g>
<!-- precomp&#45;&gt;lstar -->
<g id="edge5" class="edge">
<title>precomp&#45;&gt;lstar</title>
<path fill="none" stroke="black" d="M308,-911.71C308,-903.46 308,-893.91 308,-885.17"/>
<polygon fill="black" stroke="black" points="311.5,-885.06 308,-875.06 304.5,-885.06 311.5,-885.06"/>
</g>
<!-- closure -->
<g id="node7" class="node">
<title>closure</title>
<path fill="#fff3e0" stroke="black" d="M299.5,-802C299.5,-802 204.5,-802 204.5,-802 198.5,-802 192.5,-796 192.5,-790 192.5,-790 192.5,-778 192.5,-778 192.5,-772 198.5,-766 204.5,-766 204.5,-766 299.5,-766 299.5,-766 305.5,-766 311.5,-772 311.5,-778 311.5,-778 311.5,-790 311.5,-790 311.5,-796 305.5,-802 299.5,-802"/>
<text text-anchor="middle" x="252" y="-787.2" font-family="Helvetica,sans-Serif" font-size="11.00">Closure Check</text>
<text text-anchor="middle" x="252" y="-775.2" font-family="Helvetica,sans-Serif" font-size="11.00">(same as Original)</text>
</g>
<!-- lstar&#45;&gt;closure -->
<g id="edge6" class="edge">
<title>lstar&#45;&gt;closure</title>
<path fill="none" stroke="black" d="M296.94,-841.97C289.72,-832.83 280.11,-820.63 271.62,-809.88"/>
<polygon fill="black" stroke="black" points="274.35,-807.69 265.41,-802 268.86,-812.02 274.35,-807.69"/>
</g>
<!-- build -->
<g id="node8" class="node">
<title>build</title>
<path fill="#fce4ec" stroke="black" d="M311.5,-729C311.5,-729 122.5,-729 122.5,-729 116.5,-729 110.5,-723 110.5,-717 110.5,-717 110.5,-661 110.5,-661 110.5,-655 116.5,-649 122.5,-649 122.5,-649 311.5,-649 311.5,-649 317.5,-649 323.5,-655 323.5,-661 323.5,-661 323.5,-717 323.5,-717 323.5,-723 317.5,-729 311.5,-729"/>
<text text-anchor="middle" x="217" y="-716.2" font-family="Helvetica,sans-Serif" font-size="11.00">Build PMM (Topology Only)</text>
<text text-anchor="middle" x="217" y="-704.2" font-family="Helvetica,sans-Serif" font-size="11.00">For each (node q, input x):</text>
<text text-anchor="middle" x="217" y="-692.2" font-family="Helvetica,sans-Serif" font-size="11.00"> &#160;match history instances by prefix</text>
<text text-anchor="middle" x="217" y="-680.2" font-family="Helvetica,sans-Serif" font-size="11.00"> &#160;→ compute transition prob δ(q,x)</text>
<text text-anchor="middle" x="217" y="-668.2" font-family="Helvetica,sans-Serif" font-size="11.00"> &#160;★ λ used for L* convergence only,</text>
<text text-anchor="middle" x="217" y="-656.2" font-family="Helvetica,sans-Serif" font-size="11.00"> &#160;&#160;&#160;&#160;NOT the final action source</text>
</g>
<!-- closure&#45;&gt;build -->
<g id="edge7" class="edge">
<title>closure&#45;&gt;build</title>
<path fill="none" stroke="black" d="M245.58,-765.94C242.65,-758.15 239.01,-748.49 235.33,-738.7"/>
<polygon fill="black" stroke="black" points="238.6,-737.46 231.8,-729.33 232.05,-739.92 238.6,-737.46"/>
</g>
<!-- eq -->
<g id="node9" class="node">
<title>eq</title>
<path fill="#f3e5f5" stroke="black" d="M265,-612C265,-612 169,-612 169,-612 163,-612 157,-606 157,-600 157,-600 157,-588 157,-588 157,-582 163,-576 169,-576 169,-576 265,-576 265,-576 271,-576 277,-582 277,-588 277,-588 277,-600 277,-600 277,-606 271,-612 265,-612"/>
<text text-anchor="middle" x="217" y="-597.2" font-family="Helvetica,sans-Serif" font-size="11.00">Equivalence Query</text>
<text text-anchor="middle" x="217" y="-585.2" font-family="Helvetica,sans-Serif" font-size="11.00">(same as Original)</text>
</g>
<!-- build&#45;&gt;eq -->
<g id="edge8" class="edge">
<title>build&#45;&gt;eq</title>
<path fill="none" stroke="black" d="M217,-648.83C217,-639.99 217,-630.79 217,-622.55"/>
<polygon fill="black" stroke="black" points="220.5,-622.38 217,-612.38 213.5,-622.38 220.5,-622.38"/>
</g>
<!-- converge -->
<g id="node10" class="node">
<title>converge</title>
<polygon fill="#fff9c4" stroke="black" points="217,-539 147.03,-521 217,-503 286.97,-521 217,-539"/>
<text text-anchor="middle" x="217" y="-518.2" font-family="Helvetica,sans-Serif" font-size="11.00">Converged?</text>
</g>
<!-- eq&#45;&gt;converge -->
<g id="edge9" class="edge">
<title>eq&#45;&gt;converge</title>
<path fill="none" stroke="black" d="M217,-575.81C217,-567.79 217,-558.05 217,-549.07"/>
<polygon fill="black" stroke="black" points="220.5,-549.03 217,-539.03 213.5,-549.03 220.5,-549.03"/>
</g>
<!-- add_ce -->
<g id="node11" class="node">
<title>add_ce</title>
<path fill="#e0f7fa" stroke="black" d="M389.5,-456C389.5,-456 282.5,-456 282.5,-456 276.5,-456 270.5,-450 270.5,-444 270.5,-444 270.5,-432 270.5,-432 270.5,-426 276.5,-420 282.5,-420 282.5,-420 389.5,-420 389.5,-420 395.5,-420 401.5,-426 401.5,-432 401.5,-432 401.5,-444 401.5,-444 401.5,-450 395.5,-456 389.5,-456"/>
<text text-anchor="middle" x="336" y="-441.2" font-family="Helvetica,sans-Serif" font-size="11.00">Add counterexample</text>
<text text-anchor="middle" x="336" y="-429.2" font-family="Helvetica,sans-Serif" font-size="11.00">prefixes to S</text>
</g>
<!-- converge&#45;&gt;add_ce -->
<g id="edge11" class="edge">
<title>converge&#45;&gt;add_ce</title>
<path fill="none" stroke="black" d="M219.44,-503.61C221.69,-493.84 225.96,-481.85 234,-474 241.74,-466.44 251.19,-460.51 261.17,-455.85"/>
<polygon fill="black" stroke="black" points="262.61,-459.05 270.46,-451.93 259.89,-452.6 262.61,-459.05"/>
<text text-anchor="middle" x="286" y="-477" font-family="Helvetica,sans-Serif" font-size="10.00" fill="red">No (counterexample)</text>
</g>
<!-- post -->
<g id="node12" class="node">
<title>post</title>
<path fill="#e8eaf6" stroke="black" d="M225.5,-456C225.5,-456 40.5,-456 40.5,-456 34.5,-456 28.5,-450 28.5,-444 28.5,-444 28.5,-432 28.5,-432 28.5,-426 34.5,-420 40.5,-420 40.5,-420 225.5,-420 225.5,-420 231.5,-420 237.5,-426 237.5,-432 237.5,-432 237.5,-444 237.5,-444 237.5,-450 231.5,-456 225.5,-456"/>
<text text-anchor="middle" x="133" y="-441.2" font-family="Helvetica,sans-Serif" font-size="11.00">Post&#45;process</text>
<text text-anchor="middle" x="133" y="-429.2" font-family="Helvetica,sans-Serif" font-size="11.00">Merge Nodes → Filter Empty Edges</text>
</g>
<!-- converge&#45;&gt;post -->
<g id="edge10" class="edge">
<title>converge&#45;&gt;post</title>
<path fill="none" stroke="black" d="M177.53,-513.12C161.27,-508.15 143.93,-499.62 134,-485 130.29,-479.54 128.87,-472.8 128.65,-466.19"/>
<polygon fill="black" stroke="black" points="132.15,-466.25 129.14,-456.1 125.16,-465.92 132.15,-466.25"/>
<text text-anchor="middle" x="172.5" y="-477" font-family="Helvetica,sans-Serif" font-size="10.00" fill="green">Yes (stable ≥ 2)</text>
</g>
<!-- add_ce&#45;&gt;lstar -->
<g id="edge12" class="edge">
<title>add_ce&#45;&gt;lstar</title>
<path fill="none" stroke="black" d="M341.42,-456.19C346.06,-472.45 352,-497.64 352,-520 352,-785 352,-785 352,-785 352,-803.97 340.51,-822.1 329.27,-835.29"/>
<polygon fill="black" stroke="black" points="326.55,-833.07 322.41,-842.83 331.73,-837.79 326.55,-833.07"/>
</g>
<!-- replay -->
<g id="node13" class="node">
<title>replay</title>
<path fill="#c8e6c9" stroke="black" d="M233.5,-373C233.5,-373 32.5,-373 32.5,-373 26.5,-373 20.5,-367 20.5,-361 20.5,-361 20.5,-281 20.5,-281 20.5,-275 26.5,-269 32.5,-269 32.5,-269 233.5,-269 233.5,-269 239.5,-269 245.5,-275 245.5,-281 245.5,-281 245.5,-361 245.5,-361 245.5,-367 239.5,-373 233.5,-373"/>
<text text-anchor="middle" x="133" y="-360.2" font-family="Helvetica,sans-Serif" font-size="11.00">★ Replay Assign (NEW)</text>
<text text-anchor="middle" x="133" y="-348.2" font-family="Helvetica,sans-Serif" font-size="11.00">For each episode:</text>
<text text-anchor="middle" x="133" y="-336.2" font-family="Helvetica,sans-Serif" font-size="11.00"> &#160;q0 = nearest&#45;rep node</text>
<text text-anchor="middle" x="133" y="-324.2" font-family="Helvetica,sans-Serif" font-size="11.00"> &#160;For each step t:</text>
<text text-anchor="middle" x="133" y="-312.2" font-family="Helvetica,sans-Serif" font-size="11.00"> &#160;&#160;&#160;x = S[t], lookup δ(q, x)</text>
<text text-anchor="middle" x="133" y="-300.2" font-family="Helvetica,sans-Serif" font-size="11.00"> &#160;&#160;&#160;single candidate → follow</text>
<text text-anchor="middle" x="133" y="-288.2" font-family="Helvetica,sans-Serif" font-size="11.00"> &#160;&#160;&#160;multiple → pick nearest by RNN h_t</text>
<text text-anchor="middle" x="133" y="-276.2" font-family="Helvetica,sans-Serif" font-size="11.00"> &#160;Record (q, x, q&#39;) → (epi, t)</text>
</g>
<!-- post&#45;&gt;replay -->
<g id="edge13" class="edge">
<title>post&#45;&gt;replay</title>
<path fill="none" stroke="black" d="M133,-419.53C133,-409.62 133,-396.55 133,-383.22"/>
<polygon fill="black" stroke="black" points="136.5,-383.02 133,-373.02 129.5,-383.02 136.5,-383.02"/>
<text text-anchor="middle" x="168" y="-394" font-family="Helvetica,sans-Serif" font-size="10.00">topology fixed</text>
</g>
<!-- cache -->
<g id="node14" class="node">
<title>cache</title>
<path fill="#c8e6c9" stroke="black" d="M254,-232C254,-232 12,-232 12,-232 6,-232 0,-226 0,-220 0,-220 0,-188 0,-188 0,-182 6,-176 12,-176 12,-176 254,-176 254,-176 260,-176 266,-182 266,-188 266,-188 266,-220 266,-220 266,-226 260,-232 254,-232"/>
<text text-anchor="middle" x="133" y="-219.2" font-family="Helvetica,sans-Serif" font-size="11.00">★ Build Cache (NEW)</text>
<text text-anchor="middle" x="133" y="-207.2" font-family="Helvetica,sans-Serif" font-size="11.00">edge_cache: {(q,x,q&#39;) → [(epi,t), ...]}</text>
<text text-anchor="middle" x="133" y="-195.2" font-family="Helvetica,sans-Serif" font-size="11.00">qx_actions: {(q,x) → [action, ...]}</text>
<text text-anchor="middle" x="133" y="-183.2" font-family="Helvetica,sans-Serif" font-size="11.00">(aggregate actions from replay assignments)</text>
</g>
<!-- replay&#45;&gt;cache -->
<g id="edge14" class="edge">
<title>replay&#45;&gt;cache</title>
<path fill="none" stroke="black" d="M133,-268.89C133,-259.85 133,-250.59 133,-242.03"/>
<polygon fill="black" stroke="black" points="136.5,-242 133,-232 129.5,-242 136.5,-242"/>
</g>
<!-- done -->
<g id="node15" class="node">
<title>done</title>
<polygon fill="#e8f5e9" stroke="black" points="133,-139 19.09,-121 133,-103 246.91,-121 133,-139"/>
<polyline fill="none" stroke="black" points="30.94,-122.87 30.94,-119.13 "/>
<polyline fill="none" stroke="black" points="121.15,-104.87 144.85,-104.87 "/>
<polyline fill="none" stroke="black" points="235.06,-119.13 235.06,-122.87 "/>
<polyline fill="none" stroke="black" points="144.85,-137.13 121.15,-137.13 "/>
<text text-anchor="middle" x="133" y="-118.2" font-family="Helvetica,sans-Serif" font-size="11.00">Return PMM + Cache</text>
</g>
<!-- cache&#45;&gt;done -->
<g id="edge15" class="edge">
<title>cache&#45;&gt;done</title>
<path fill="none" stroke="black" d="M133,-175.58C133,-167.06 133,-157.67 133,-149.17"/>
<polygon fill="black" stroke="black" points="136.5,-149 133,-139 129.5,-149 136.5,-149"/>
</g>
<!-- predict -->
<g id="node16" class="node">
<title>predict</title>
<path fill="#ffcdd2" stroke="black" d="M218.5,-56C218.5,-56 47.5,-56 47.5,-56 41.5,-56 35.5,-50 35.5,-44 35.5,-44 35.5,-12 35.5,-12 35.5,-6 41.5,0 47.5,0 47.5,0 218.5,0 218.5,0 224.5,0 230.5,-6 230.5,-12 230.5,-12 230.5,-44 230.5,-44 230.5,-50 224.5,-56 218.5,-56"/>
<text text-anchor="middle" x="133" y="-43.2" font-family="Helvetica,sans-Serif" font-size="11.00">predict(q, x)</text>
<text text-anchor="middle" x="133" y="-31.2" font-family="Helvetica,sans-Serif" font-size="11.00">qx_actions[(q,x)] → mean action</text>
<text text-anchor="middle" x="133" y="-19.2" font-family="Helvetica,sans-Serif" font-size="11.00">(lookup from replay cache,</text>
<text text-anchor="middle" x="133" y="-7.2" font-family="Helvetica,sans-Serif" font-size="11.00"> NOT from L*&#45;time λ table)</text>
</g>
<!-- done&#45;&gt;predict -->
<g id="edge16" class="edge">
<title>done&#45;&gt;predict</title>
<path fill="none" stroke="black" stroke-dasharray="5,2" d="M133,-102.88C133,-92.59 133,-79.06 133,-66.4"/>
<polygon fill="black" stroke="black" points="136.5,-66.06 133,-56.06 129.5,-66.06 136.5,-66.06"/>
<text text-anchor="middle" x="156" y="-77" font-family="Helvetica,sans-Serif" font-size="10.00">inference</text>
</g>
</g>
</svg>
